<?xml version="1.0" encoding="utf-8"?>
<!-- Generator: Adobe Illustrator 16.0.0, SVG Export Plug-In . SVG Version: 6.00 Build 0)  -->
<!DOCTYPE svg PUBLIC "-//W3C//DTD SVG 1.1//EN" "http://www.w3.org/Graphics/SVG/1.1/DTD/svg11.dtd">
<svg version="1.1" id="Layer_1" xmlns="http://www.w3.org/2000/svg" xmlns:xlink="http://www.w3.org/1999/xlink" x="0px" y="0px"
	 width="95px" height="35px" viewBox="0 0 95 35" enable-background="new 0 0 95 35" xml:space="preserve">
<g>
	<defs>
		<rect id="SVGID_1_" width="95" height="35"/>
	</defs>
	<clipPath id="SVGID_2_">
		<use xlink:href="#SVGID_1_"  overflow="visible"/>
	</clipPath>
	<g clip-path="url(#SVGID_2_)">
		<defs>
			<rect id="SVGID_3_" width="95" height="35"/>
		</defs>
		<clipPath id="SVGID_4_">
			<use xlink:href="#SVGID_3_"  overflow="visible"/>
		</clipPath>
		<g transform="matrix(1 0 0 1 0 0)" clip-path="url(#SVGID_4_)">
			
				<image overflow="visible" width="988" height="400" xlink:href="C45CFF671EF7694B.png"  transform="matrix(0.0962 0 0 0.0875 0 0)">
			</image>
		</g>
	</g>
	<g clip-path="url(#SVGID_2_)">
		<defs>
			<rect id="SVGID_5_" width="95" height="35"/>
		</defs>
		<clipPath id="SVGID_6_">
			<use xlink:href="#SVGID_5_"  overflow="visible"/>
		</clipPath>
		<path clip-path="url(#SVGID_6_)" fill="#FFFFFF" d="M56.73,16.033h-3.528v5.026c0,0.213-0.118,0.32-0.352,0.32h-1.754
			c-0.128,0-0.217-0.024-0.262-0.072c-0.047-0.049-0.072-0.13-0.072-0.248v-5.026h-3.088v5.026c0,0.213-0.118,0.32-0.352,0.32
			h-1.753c-0.235,0-0.351-0.107-0.351-0.32v-5.026h-3.913c-0.152,0,0.039-0.033,0-0.096c-0.041-0.065,0-0.154,0-0.271v-1.102
			c0-0.118-0.041-0.206,0-0.262c0.039-0.061-0.152-0.088,0-0.088H56.73c0.244,0,0.365,0.116,0.365,0.351v1.102
			C57.095,15.91,56.974,16.033,56.73,16.033 M49.202,13.27c-0.832,0-1.597-0.083-2.3-0.255c-0.701-0.168-1.31-0.407-1.824-0.711
			c-0.516-0.303-0.919-0.667-1.211-1.092c-0.293-0.426-0.438-0.898-0.438-1.421c0-0.521,0.145-0.996,0.438-1.428
			c0.292-0.43,0.696-0.799,1.211-1.101c0.514-0.304,1.123-0.54,1.824-0.711c0.703-0.17,1.468-0.255,2.3-0.255
			c0.817,0,1.58,0.085,2.279,0.255c0.702,0.171,1.311,0.407,1.826,0.711c0.515,0.302,0.921,0.671,1.21,1.101
			c0.294,0.432,0.442,0.906,0.442,1.428c0,0.523-0.148,0.995-0.442,1.421c-0.289,0.425-0.693,0.79-1.202,1.092
			c-0.509,0.304-1.118,0.542-1.825,0.711C50.785,13.187,50.019,13.27,49.202,13.27 M49.202,8.117c-0.479,0-0.921,0.045-1.325,0.135
			c-0.406,0.091-0.75,0.213-1.038,0.367c-0.284,0.154-0.509,0.335-0.673,0.542c-0.165,0.208-0.247,0.424-0.247,0.648
			c0,0.213,0.083,0.419,0.247,0.621c0.164,0.202,0.389,0.379,0.673,0.527c0.287,0.149,0.632,0.27,1.038,0.36
			c0.404,0.09,0.846,0.134,1.325,0.134s0.919-0.044,1.323-0.134s0.751-0.21,1.037-0.36c0.285-0.148,0.507-0.326,0.666-0.527
			c0.159-0.202,0.236-0.408,0.236-0.621c0-0.224-0.077-0.44-0.236-0.648c-0.159-0.207-0.381-0.387-0.666-0.542
			c-0.286-0.154-0.629-0.276-1.028-0.367C50.135,8.162,49.693,8.117,49.202,8.117"/>
		<path clip-path="url(#SVGID_6_)" fill="#FFFFFF" d="M60.172,14.997c-0.222,0.115-0.371,0.177-0.447,0.181
			c-0.077,0.006-0.162-0.05-0.252-0.167l-0.862-0.99c-0.141-0.169-0.189-0.285-0.148-0.343c0.04-0.059,0.13-0.135,0.272-0.23
			c0.631-0.383,1.175-0.826,1.63-1.325c0.457-0.501,0.835-1.036,1.132-1.605c0.301-0.568,0.517-1.165,0.659-1.788
			c0.141-0.622,0.21-1.247,0.21-1.875c0-0.181,0.027-0.288,0.078-0.327c0.054-0.036,0.16-0.05,0.326-0.04l1.667,0.064
			c0.128,0.011,0.216,0.036,0.263,0.072c0.046,0.037,0.068,0.114,0.068,0.231c0,0.948-0.115,1.858-0.347,2.73
			c0.175,0.35,0.398,0.69,0.674,1.022c0.274,0.328,0.568,0.632,0.886,0.909c0.315,0.276,0.641,0.526,0.972,0.749
			c0.335,0.225,0.643,0.406,0.925,0.543c0.161,0.096,0.241,0.184,0.234,0.256c-0.005,0.074-0.056,0.176-0.15,0.302l-0.666,0.989
			c-0.091,0.127-0.175,0.197-0.246,0.211c-0.067,0.008-0.186-0.023-0.349-0.1c-0.249-0.116-0.514-0.261-0.8-0.437
			c-0.288-0.175-0.576-0.375-0.867-0.6c-0.295-0.224-0.573-0.47-0.842-0.741c-0.271-0.271-0.517-0.555-0.737-0.854
			c-0.388,0.639-0.853,1.224-1.396,1.756C61.514,14.123,60.884,14.59,60.172,14.997 M66.876,21.619c-0.763,0-1.462-0.08-2.108-0.239
			c-0.644-0.16-1.201-0.381-1.674-0.661c-0.475-0.282-0.845-0.616-1.113-0.998c-0.271-0.384-0.404-0.804-0.404-1.262
			c0-0.436,0.133-0.843,0.404-1.221c0.269-0.378,0.639-0.707,1.113-0.989c0.473-0.282,1.03-0.503,1.674-0.663
			c0.646-0.159,1.346-0.239,2.108-0.239c0.727,0,1.411,0.076,2.062,0.232c0.65,0.153,1.219,0.372,1.71,0.654
			c0.49,0.281,0.881,0.612,1.176,0.988c0.291,0.379,0.438,0.791,0.438,1.238c0,0.458-0.147,0.878-0.438,1.262
			c-0.295,0.382-0.686,0.716-1.176,0.998c-0.491,0.28-1.06,0.501-1.71,0.661C68.288,21.539,67.603,21.619,66.876,21.619
			 M66.876,17.086c-0.877,0-1.563,0.143-2.062,0.43c-0.497,0.289-0.747,0.619-0.747,0.991c0,0.36,0.25,0.678,0.747,0.948
			c0.498,0.271,1.185,0.408,2.062,0.408c0.407,0,0.787-0.038,1.138-0.111c0.354-0.075,0.657-0.174,0.914-0.297
			c0.257-0.121,0.458-0.265,0.606-0.433c0.146-0.163,0.218-0.336,0.218-0.516c0-0.181-0.071-0.358-0.218-0.527
			c-0.148-0.17-0.35-0.323-0.606-0.456c-0.257-0.133-0.56-0.24-0.914-0.319C67.664,17.125,67.284,17.086,66.876,17.086
			 M66.962,10.845l-0.246-0.065c-0.058-0.042-0.087-0.122-0.087-0.238V9.361c0-0.149,0.032-0.237,0.096-0.262l0.237-0.042h2.755
			v-2.57c0-0.138,0.035-0.224,0.106-0.257l0.263-0.045h1.738c0.15,0,0.24,0.028,0.272,0.087l0.043,0.216v8.157
			c0,0.202-0.112,0.304-0.335,0.304h-1.753c-0.223,0-0.335-0.096-0.335-0.289v-3.814H66.962z"/>
		<path clip-path="url(#SVGID_6_)" fill="#FFFFFF" d="M89.971,14.963H83.46v6.097c0,0.211-0.114,0.317-0.348,0.317h-1.739
			c-0.245,0-0.368-0.106-0.368-0.317v-6.097H74.9c-0.152,0-0.252-0.03-0.291-0.088c-0.04-0.06-0.062-0.147-0.062-0.264v-1.101
			c0-0.118,0.022-0.206,0.062-0.264c0.039-0.058,0.139-0.088,0.291-0.088h10.263c0.164-0.617,0.289-1.296,0.38-2.034
			c0.084-0.741,0.129-1.498,0.129-2.275l-0.051-0.255c-0.035-0.075-0.141-0.113-0.319-0.113h-8.298l-0.262-0.039
			c-0.082-0.027-0.124-0.109-0.124-0.248v-1.26c0-0.129,0.038-0.205,0.113-0.232l0.272-0.04h9.844c0.445,0,0.76,0.087,0.948,0.264
			s0.282,0.487,0.282,0.933c0,0.895-0.05,1.799-0.14,2.714c-0.098,0.916-0.242,1.777-0.44,2.586h2.474
			c0.246,0,0.368,0.117,0.368,0.352v1.101C90.339,14.845,90.217,14.963,89.971,14.963"/>
		<polygon clip-path="url(#SVGID_6_)" fill="#FFFFFF" points="44.662,23.365 43.576,25.31 43.576,26.669 43.023,26.669 
			43.023,25.31 41.938,23.365 42.539,23.366 43.299,24.82 44.061,23.366 		"/>
		<path clip-path="url(#SVGID_6_)" fill="#FFFFFF" d="M47.791,25.555c0,0.339-0.125,0.612-0.37,0.825
			c-0.247,0.212-0.56,0.315-0.938,0.315c-0.375,0-0.684-0.104-0.931-0.315c-0.245-0.213-0.37-0.486-0.37-0.825v-2.19h0.552v2.167
			c0,0.221,0.066,0.396,0.201,0.523c0.134,0.128,0.318,0.193,0.548,0.193c0.228,0,0.412-0.065,0.55-0.193
			c0.136-0.128,0.206-0.303,0.206-0.523v-2.167h0.552V25.555z"/>
		<path clip-path="url(#SVGID_6_)" fill="#FFFFFF" d="M51.031,25.727c0,0.301-0.121,0.537-0.359,0.71
			c-0.239,0.175-0.556,0.26-0.947,0.26c-0.277,0-0.519-0.033-0.724-0.099c-0.205-0.066-0.392-0.179-0.561-0.338l0.366-0.329
			c0.127,0.115,0.264,0.196,0.416,0.244c0.151,0.048,0.323,0.073,0.513,0.073c0.237,0,0.424-0.045,0.553-0.133
			c0.132-0.089,0.198-0.213,0.198-0.374c0-0.152-0.048-0.266-0.145-0.344l-0.152-0.088l-0.244-0.052l-0.431-0.056
			c-0.295-0.036-0.524-0.124-0.688-0.265c-0.177-0.15-0.266-0.361-0.266-0.63c0-0.291,0.108-0.527,0.327-0.704
			c0.218-0.179,0.513-0.267,0.889-0.267c0.453,0,0.832,0.126,1.126,0.376l-0.351,0.315c-0.105-0.092-0.223-0.158-0.354-0.199
			c-0.13-0.036-0.276-0.056-0.438-0.056c-0.208,0-0.371,0.048-0.487,0.146c-0.117,0.097-0.176,0.219-0.176,0.367
			c0,0.131,0.046,0.234,0.139,0.311c0.095,0.075,0.228,0.125,0.405,0.15l0.415,0.056c0.163,0.021,0.296,0.052,0.4,0.089l0.277,0.155
			C50.933,25.208,51.031,25.434,51.031,25.727"/>
		<polygon clip-path="url(#SVGID_6_)" fill="#FFFFFF" points="54.168,26.669 51.847,26.669 51.847,23.365 54.168,23.365 
			54.168,23.813 52.399,23.813 52.399,24.782 53.91,24.782 53.91,25.227 52.399,25.227 52.399,26.22 54.168,26.22 		"/>
		<path clip-path="url(#SVGID_6_)" fill="#FFFFFF" d="M57.482,25.018c0,0.398-0.014,0.658-0.036,0.779
			c-0.041,0.213-0.146,0.396-0.312,0.547c-0.259,0.235-0.577,0.353-0.958,0.353c-0.38,0-0.698-0.117-0.955-0.353
			c-0.163-0.147-0.268-0.328-0.312-0.542c-0.026-0.133-0.041-0.396-0.041-0.784c0-0.387,0.015-0.647,0.041-0.781
			c0.045-0.216,0.149-0.398,0.312-0.547c0.257-0.235,0.575-0.353,0.955-0.353c0.191,0,0.367,0.029,0.525,0.087
			c0.159,0.059,0.304,0.148,0.433,0.266c0.159,0.146,0.263,0.327,0.307,0.542C57.467,24.37,57.482,24.631,57.482,25.018
			 M56.93,25.018c0-0.347-0.014-0.583-0.038-0.704c-0.026-0.122-0.085-0.23-0.176-0.322l-0.239-0.15l-0.301-0.053l-0.306,0.055
			l-0.237,0.148c-0.087,0.086-0.146,0.194-0.173,0.327c-0.027,0.132-0.042,0.364-0.042,0.699c0,0.347,0.013,0.581,0.039,0.703
			c0.024,0.121,0.085,0.229,0.176,0.322l0.237,0.15l0.306,0.055l0.301-0.057l0.239-0.148c0.087-0.088,0.145-0.196,0.173-0.328
			C56.916,25.585,56.93,25.35,56.93,25.018"/>
		<polygon clip-path="url(#SVGID_6_)" fill="#FFFFFF" points="61.109,26.669 60.604,26.669 58.925,24.345 58.925,26.669 
			58.374,26.669 58.374,23.365 58.877,23.366 60.559,25.684 60.559,23.365 61.109,23.365 		"/>
		<path clip-path="url(#SVGID_6_)" fill="#FFFFFF" d="M64.635,25.392c0,0.216-0.025,0.396-0.074,0.539
			c-0.05,0.143-0.132,0.274-0.254,0.391c-0.135,0.131-0.285,0.226-0.451,0.285c-0.164,0.061-0.347,0.09-0.546,0.09
			c-0.378,0-0.698-0.117-0.956-0.353c-0.163-0.147-0.267-0.328-0.31-0.542c-0.029-0.133-0.043-0.396-0.043-0.785
			c0-0.386,0.014-0.646,0.043-0.779c0.045-0.217,0.146-0.399,0.311-0.548c0.259-0.235,0.578-0.353,0.957-0.353
			c0.371,0,0.678,0.099,0.915,0.298c0.218,0.184,0.354,0.429,0.408,0.732h-0.558c-0.048-0.185-0.137-0.326-0.265-0.428
			c-0.13-0.102-0.299-0.151-0.502-0.151l-0.3,0.055l-0.238,0.148c-0.089,0.086-0.147,0.199-0.175,0.337
			c-0.03,0.138-0.045,0.367-0.045,0.688c0,0.338,0.014,0.571,0.042,0.701c0.026,0.13,0.086,0.239,0.178,0.33
			c0.135,0.131,0.315,0.2,0.537,0.2c0.244,0,0.44-0.078,0.591-0.232c0.122-0.131,0.183-0.304,0.183-0.521V25.31H63.31v-0.423h1.325
			V25.392z"/>
		<path clip-path="url(#SVGID_6_)" fill="#FFFFFF" d="M70.708,24.994v0.107v0.073c0,0.282-0.018,0.495-0.051,0.638
			c-0.052,0.22-0.155,0.402-0.314,0.547c-0.112,0.103-0.251,0.18-0.414,0.231c-0.16,0.052-0.338,0.079-0.526,0.079h-1.275v-3.305
			h1.275c0.396,0,0.712,0.104,0.94,0.312c0.173,0.158,0.282,0.361,0.331,0.613C70.696,24.415,70.708,24.651,70.708,24.994
			 M70.157,24.994c0-0.276-0.009-0.467-0.026-0.576c-0.027-0.166-0.083-0.292-0.168-0.38c-0.15-0.148-0.354-0.225-0.615-0.225
			h-0.669v2.407h0.669c0.261,0,0.465-0.075,0.615-0.224c0.085-0.086,0.141-0.219,0.168-0.398
			C70.148,25.479,70.157,25.278,70.157,24.994"/>
		<rect x="71.602" y="23.364" clip-path="url(#SVGID_6_)" fill="#FFFFFF" width="0.552" height="3.305"/>
		<path clip-path="url(#SVGID_6_)" fill="#FFFFFF" d="M75.448,25.727c0,0.301-0.12,0.537-0.36,0.71
			c-0.238,0.175-0.554,0.26-0.945,0.26c-0.279,0-0.519-0.033-0.725-0.099c-0.205-0.066-0.391-0.179-0.562-0.338l0.367-0.329
			c0.126,0.115,0.265,0.196,0.417,0.244c0.151,0.048,0.322,0.073,0.512,0.073c0.238,0,0.425-0.045,0.554-0.133
			c0.131-0.089,0.198-0.213,0.198-0.374c0-0.152-0.048-0.266-0.145-0.344l-0.152-0.088l-0.244-0.052l-0.431-0.056
			c-0.295-0.036-0.524-0.124-0.688-0.265c-0.177-0.15-0.267-0.361-0.267-0.63c0-0.291,0.109-0.527,0.328-0.704
			c0.218-0.179,0.513-0.267,0.889-0.267c0.453,0,0.83,0.126,1.125,0.376l-0.35,0.315c-0.105-0.092-0.224-0.158-0.354-0.199
			c-0.13-0.036-0.276-0.056-0.438-0.056c-0.208,0-0.372,0.048-0.488,0.146c-0.117,0.097-0.176,0.219-0.176,0.367
			c0,0.131,0.046,0.234,0.14,0.311c0.095,0.075,0.228,0.125,0.405,0.15l0.415,0.056c0.163,0.021,0.295,0.052,0.398,0.089
			l0.278,0.155C75.35,25.208,75.448,25.434,75.448,25.727"/>
		<polygon clip-path="url(#SVGID_6_)" fill="#FFFFFF" points="78.495,23.814 77.494,23.814 77.494,26.669 76.945,26.669 
			76.945,23.814 75.945,23.814 75.945,23.365 78.495,23.365 		"/>
		<path clip-path="url(#SVGID_6_)" fill="#FFFFFF" d="M81.847,26.669l-0.643,0.002l-0.765-1.396l-0.688,0.002v1.393H79.2v-3.305
			h1.407c0.341,0,0.614,0.088,0.82,0.267c0.205,0.177,0.308,0.411,0.308,0.699c0,0.226-0.066,0.415-0.199,0.568
			c-0.137,0.153-0.311,0.257-0.525,0.309L81.847,26.669z M81.183,24.337c0-0.161-0.055-0.289-0.168-0.382
			c-0.112-0.095-0.261-0.143-0.448-0.143h-0.815v1.042h0.815c0.185,0,0.332-0.046,0.447-0.139
			C81.127,24.626,81.183,24.5,81.183,24.337"/>
		<rect x="82.62" y="23.364" clip-path="url(#SVGID_6_)" fill="#FFFFFF" width="0.552" height="3.305"/>
		<path clip-path="url(#SVGID_6_)" fill="#FFFFFF" d="M86.665,25.681c-0.061,0.325-0.206,0.575-0.439,0.753
			c-0.23,0.175-0.516,0.263-0.856,0.263c-0.378,0-0.693-0.117-0.955-0.353c-0.162-0.147-0.267-0.329-0.31-0.542
			c-0.026-0.133-0.041-0.396-0.041-0.784c0-0.387,0.015-0.647,0.041-0.78c0.043-0.217,0.147-0.4,0.31-0.548
			c0.262-0.235,0.577-0.353,0.955-0.353c0.341,0,0.625,0.088,0.854,0.265c0.23,0.176,0.377,0.427,0.441,0.751h-0.561
			c-0.046-0.176-0.126-0.313-0.245-0.408c-0.129-0.104-0.292-0.158-0.49-0.158c-0.222,0-0.4,0.067-0.536,0.198
			c-0.086,0.088-0.146,0.202-0.176,0.341c-0.027,0.139-0.042,0.369-0.042,0.692c0,0.336,0.013,0.57,0.039,0.7
			c0.029,0.13,0.089,0.239,0.179,0.33c0.136,0.133,0.314,0.2,0.536,0.2c0.198,0,0.36-0.052,0.486-0.154
			c0.124-0.103,0.21-0.239,0.253-0.413H86.665z"/>
		<polygon clip-path="url(#SVGID_6_)" fill="#FFFFFF" points="89.707,23.814 88.706,23.814 88.706,26.669 88.156,26.669 
			88.156,23.814 87.156,23.814 87.156,23.365 89.707,23.365 		"/>
		<path clip-path="url(#SVGID_6_)" fill="#FFFFFF" d="M36.083,16.439c0-1.947-2.922-3.659-7.345-4.65
			c1.267-3.983,1.102-7.146-0.75-8.119s-4.942,0.474-8.095,3.465c-3.154-2.991-6.242-4.439-8.098-3.465
			c-1.851,0.974-2.018,4.136-0.752,8.119c-4.422,0.991-7.34,2.703-7.34,4.65c0,1.949,2.918,3.664,7.34,4.655
			c-1.266,3.98-1.099,7.144,0.752,8.115c1.856,0.979,4.944-0.474,8.098-3.464c3.153,2.99,6.242,4.442,8.095,3.464
			c1.853-0.972,2.018-4.135,0.75-8.114C33.161,20.103,36.083,18.388,36.083,16.439"/>
		<path clip-path="url(#SVGID_6_)" fill="#FFFFFF" d="M36.083,16.439h1.335c0.002-0.769-0.298-1.495-0.765-2.101
			c-0.705-0.914-1.75-1.624-3.034-2.234c-1.286-0.605-2.824-1.105-4.563-1.496l-0.319,1.181l1.282,0.338
			c0.566-1.781,0.872-3.426,0.873-4.878c-0.001-0.977-0.136-1.874-0.477-2.674c-0.335-0.794-0.917-1.517-1.761-1.958
			c-0.609-0.321-1.301-0.466-1.98-0.463c-1.294,0.007-2.557,0.461-3.843,1.175c-1.284,0.719-2.594,1.725-3.903,2.963l0.964,0.842
			l0.963-0.842c-1.309-1.238-2.62-2.244-3.903-2.963c-1.285-0.713-2.548-1.167-3.842-1.177c-0.681-0.001-1.373,0.144-1.983,0.465
			c-0.842,0.441-1.426,1.163-1.761,1.959C9.026,5.378,8.892,6.274,8.889,7.252c0.003,1.452,0.308,3.095,0.871,4.874l1.283-0.336
			l-0.319-1.181c-2.319,0.524-4.278,1.229-5.761,2.144c-0.738,0.459-1.365,0.977-1.832,1.586c-0.465,0.607-0.766,1.333-0.763,2.101
			c-0.002,0.768,0.298,1.495,0.763,2.101c0.705,0.916,1.749,1.626,3.031,2.238c1.285,0.606,2.824,1.104,4.562,1.495l0.319-1.18
			L9.76,20.756c-0.563,1.778-0.868,3.423-0.871,4.873c0.003,0.978,0.138,1.874,0.479,2.675c0.335,0.796,0.919,1.518,1.761,1.958
			c0.609,0.323,1.302,0.468,1.984,0.467c1.294-0.009,2.558-0.464,3.842-1.178c1.284-0.721,2.593-1.726,3.901-2.965l-0.963-0.841
			l-0.964,0.841c1.309,1.239,2.618,2.244,3.901,2.965c1.286,0.714,2.548,1.169,3.844,1.178c0.681,0.001,1.375-0.144,1.984-0.468
			l-0.002,0.001c0.844-0.44,1.425-1.162,1.761-1.957c0.34-0.801,0.476-1.694,0.477-2.674c-0.001-1.45-0.307-3.094-0.873-4.874
			l-1.282,0.338l0.319,1.18c2.32-0.523,4.281-1.229,5.766-2.145c0.738-0.46,1.365-0.978,1.833-1.589
			c0.464-0.605,0.765-1.333,0.763-2.102H36.083h-1.336c-0.001,0.207-0.066,0.424-0.287,0.718c-0.325,0.435-1.03,0.977-2.072,1.465
			c-1.038,0.491-2.393,0.939-3.971,1.292c-0.352,0.079-0.655,0.288-0.837,0.573c-0.182,0.283-0.227,0.629-0.126,0.944
			c0.515,1.614,0.769,3.065,0.767,4.199c0.001,0.765-0.116,1.379-0.294,1.792c-0.184,0.42-0.388,0.616-0.608,0.733l-0.001,0.003
			c-0.166,0.085-0.355,0.136-0.645,0.139c-0.54,0.007-1.42-0.238-2.443-0.818c-1.026-0.571-2.189-1.45-3.373-2.576
			c-0.251-0.237-0.604-0.374-0.965-0.374c-0.363,0-0.713,0.137-0.964,0.374c-1.186,1.126-2.349,2.005-3.373,2.576
			c-1.024,0.58-1.904,0.825-2.443,0.818c-0.29-0.003-0.482-0.054-0.647-0.141c-0.222-0.118-0.426-0.315-0.61-0.735
			c-0.177-0.413-0.297-1.03-0.295-1.793c-0.001-1.135,0.251-2.585,0.767-4.199c0.101-0.314,0.055-0.66-0.127-0.944
			c-0.181-0.285-0.486-0.493-0.837-0.573c-2.102-0.467-3.81-1.115-4.895-1.79c-0.542-0.336-0.922-0.675-1.141-0.965
			c-0.22-0.292-0.285-0.512-0.288-0.718c0.003-0.205,0.068-0.423,0.287-0.716c0.325-0.435,1.027-0.975,2.069-1.461
			c1.036-0.491,2.392-0.939,3.967-1.292c0.352-0.079,0.656-0.289,0.837-0.573c0.182-0.286,0.228-0.63,0.127-0.945
			c-0.515-1.614-0.768-3.065-0.767-4.2c-0.001-0.763,0.118-1.38,0.295-1.792c0.185-0.421,0.389-0.617,0.608-0.737
			c0.167-0.084,0.359-0.136,0.648-0.139c0.54-0.007,1.42,0.237,2.443,0.817c1.026,0.572,2.189,1.449,3.375,2.575
			c0.251,0.238,0.601,0.375,0.964,0.375c0.361,0,0.713-0.136,0.965-0.375c1.184-1.125,2.347-2.003,3.373-2.575
			c1.024-0.58,1.904-0.824,2.444-0.815c0.29,0.001,0.479,0.052,0.645,0.137c0.222,0.12,0.424,0.315,0.609,0.734
			c0.178,0.414,0.295,1.029,0.293,1.792c0.001,1.134-0.252,2.586-0.767,4.203c-0.101,0.314-0.055,0.66,0.126,0.945
			c0.182,0.284,0.486,0.494,0.837,0.573c2.104,0.467,3.815,1.114,4.899,1.79c0.543,0.337,0.924,0.676,1.143,0.963
			c0.22,0.294,0.286,0.512,0.287,0.716H36.083z"/>
		<path clip-path="url(#SVGID_6_)" fill="#056FB8" d="M36.083,16.439c0-1.947-2.922-3.659-7.345-4.65
			c-0.465,1.462-1.123,3.035-1.962,4.654c0.839,1.617,1.498,3.186,1.962,4.652C33.161,20.103,36.083,18.388,36.083,16.439"/>
		<path clip-path="url(#SVGID_6_)" fill="#056FB8" d="M11.043,11.79c-4.422,0.991-7.34,2.704-7.34,4.649
			c0,1.95,2.918,3.664,7.34,4.655c0.464-1.465,1.125-3.034,1.966-4.652C12.167,14.824,11.507,13.251,11.043,11.79"/>
		<path clip-path="url(#SVGID_6_)" fill="#056FB8" d="M11.043,21.094c-1.266,3.981-1.099,7.144,0.752,8.115
			c1.856,0.977,4.944-0.474,8.098-3.464c-1.161-1.097-2.327-2.402-3.444-3.875C14.493,21.724,12.667,21.458,11.043,21.094"/>
		<path clip-path="url(#SVGID_6_)" fill="#056FB8" d="M28.738,11.79c1.267-3.984,1.102-7.146-0.75-8.119
			c-1.853-0.972-4.942,0.474-8.095,3.465c1.156,1.1,2.322,2.402,3.44,3.875C25.291,11.157,27.117,11.422,28.738,11.79"/>
		<path clip-path="url(#SVGID_6_)" fill="#056FB8" d="M19.893,7.135c-3.155-2.992-6.242-4.439-8.097-3.465
			c-1.853,0.973-2.02,4.135-0.753,8.119c1.624-0.367,3.45-0.633,5.409-0.778C17.566,9.539,18.732,8.235,19.893,7.135"/>
		<path clip-path="url(#SVGID_6_)" fill="#056FB8" d="M19.893,25.746c3.153,2.99,6.242,4.442,8.096,3.464
			c1.851-0.972,2.017-4.134,0.75-8.114c-1.622,0.363-3.447,0.629-5.405,0.775C22.215,23.342,21.051,24.649,19.893,25.746"/>
		<path clip-path="url(#SVGID_6_)" fill="#E52E20" d="M23.236,11.161c-1.079-0.077-2.197-0.124-3.343-0.124
			c-1.15,0-2.271,0.047-3.347,0.124c-0.619,0.812-1.216,1.672-1.793,2.577c-0.573,0.908-1.091,1.81-1.555,2.706
			c0.464,0.888,0.981,1.793,1.555,2.696c0.577,0.907,1.174,1.768,1.793,2.578c1.076,0.082,2.197,0.127,3.347,0.127
			c1.146,0,2.266-0.045,3.343-0.127c0.617-0.811,1.216-1.671,1.793-2.578c0.572-0.902,1.089-1.808,1.554-2.696
			c-0.465-0.896-0.982-1.798-1.554-2.706C24.452,12.833,23.853,11.973,23.236,11.161"/>
		<path clip-path="url(#SVGID_6_)" fill="#FFFFFF" d="M18.292,12.686c-0.016,0.019-1.464,1.904-0.547,3.564
			c1.342,2.425-1.739,4.02-1.768,4.034L15.9,20.3l-0.074-0.017l-0.027-0.092c0.015-0.02,1.741-1.999,0.708-3.558
			c-1.393-2.105,1.567-4.015,1.597-4.029l0.151-0.012L18.292,12.686z"/>
		<path clip-path="url(#SVGID_6_)" fill="#FFFFFF" d="M21.141,12.686c-0.015,0.019-1.464,1.904-0.547,3.564
			c1.339,2.425-1.737,4.02-1.77,4.034L18.747,20.3l-0.073-0.017l-0.026-0.092c0.018-0.02,1.74-1.999,0.709-3.558
			c-1.392-2.105,1.565-4.015,1.598-4.029l0.15-0.012L21.141,12.686z"/>
		<path clip-path="url(#SVGID_6_)" fill="#FFFFFF" d="M23.991,12.686c-0.014,0.019-1.469,1.904-0.546,3.564
			c1.339,2.425-1.745,4.02-1.77,4.034L21.595,20.3l-0.074-0.017l-0.023-0.092c0.017-0.02,1.742-1.999,0.708-3.558
			c-1.395-2.105,1.565-4.015,1.596-4.029l0.155-0.012L23.991,12.686z"/>
	</g>
</g>
</svg>
